DataType=double
version=3
OpenSimVersion=4.0
endheader
time	/jointset/gnd_pelvis/pelvis_tilt/value	/jointset/gnd_pelvis/pelvis_tilt/speed	/jointset/gnd_pelvis/pelvis_list/value	/jointset/gnd_pelvis/pelvis_list/speed	/jointset/gnd_pelvis/pelvis_rot/value	/jointset/gnd_pelvis/pelvis_rot/speed	/jointset/gnd_pelvis/pelvis_tx/value	/jointset/gnd_pelvis/pelvis_tx/speed	/jointset/gnd_pelvis/pelvis_ty/value	/jointset/gnd_pelvis/pelvis_ty/speed	/jointset/gnd_pelvis/pelvis_tz/value	/jointset/gnd_pelvis/pelvis_tz/speed	/jointset/hip_r/hip_flex_r/value	/jointset/hip_r/hip_flex_r/speed	/jointset/hip_r/hip_add_r/value	/jointset/hip_r/hip_add_r/speed	/jointset/hip_r/hip_rot_r/value	/jointset/hip_r/hip_rot_r/speed	/jointset/pf_r/pf_flex_r/value	/jointset/pf_r/pf_flex_r/speed	/jointset/pf_r/pf_rot_r/value	/jointset/pf_r/pf_rot_r/speed	/jointset/pf_r/pf_tilt_r/value	/jointset/pf_r/pf_tilt_r/speed	/jointset/pf_r/pf_tx_r/value	/jointset/pf_r/pf_tx_r/speed	/jointset/pf_r/pf_ty_r/value	/jointset/pf_r/pf_ty_r/speed	/jointset/pf_r/pf_tz_r/value	/jointset/pf_r/pf_tz_r/speed	/jointset/knee_r/knee_flex_r/value	/jointset/knee_r/knee_flex_r/speed	/jointset/knee_r/knee_add_r/value	/jointset/knee_r/knee_add_r/speed	/jointset/knee_r/knee_rot_r/value	/jointset/knee_r/knee_rot_r/speed	/jointset/knee_r/knee_tx_r/value	/jointset/knee_r/knee_tx_r/speed	/jointset/knee_r/knee_ty_r/value	/jointset/knee_r/knee_ty_r/speed	/jointset/knee_r/knee_tz_r/value	/jointset/knee_r/knee_tz_r/speed	/jointset/ankle_r/ankle_flex_r/value	/jointset/ankle_r/ankle_flex_r/speed	/jointset/subtalar_r/subt_angle_r/value	/jointset/subtalar_r/subt_angle_r/speed	/jointset/mtp_r/mtp_angle_r/value	/jointset/mtp_r/mtp_angle_r/speed	/jointset/hip_l/hip_flex_l/value	/jointset/hip_l/hip_flex_l/speed	/jointset/hip_l/hip_add_l/value	/jointset/hip_l/hip_add_l/speed	/jointset/hip_l/hip_rot_l/value	/jointset/hip_l/hip_rot_l/speed	/jointset/pf_l/pf_l_r3/value	/jointset/pf_l/pf_l_r3/speed	/jointset/pf_l/pf_l_tx/value	/jointset/pf_l/pf_l_tx/speed	/jointset/pf_l/pf_l_ty/value	/jointset/pf_l/pf_l_ty/speed	/jointset/knee_l/knee_flex_l/value	/jointset/knee_l/knee_flex_l/speed	/jointset/ankle_l/ankle_flex_l/value	/jointset/ankle_l/ankle_flex_l/speed	/jointset/subtalar_l/subt_angle_l/value	/jointset/subtalar_l/subt_angle_l/speed	/jointset/mtp_l/mtp_angle_l/value	/jointset/mtp_l/mtp_angle_l/speed	/jointset/pelvis_torso/lumbar_ext/value	/jointset/pelvis_torso/lumbar_ext/speed	/jointset/pelvis_torso/lumbar_latbend/value	/jointset/pelvis_torso/lumbar_latbend/speed	/jointset/pelvis_torso/lumbar_rot/value	/jointset/pelvis_torso/lumbar_rot/speed	/jointset/torso_neckhead/neck_ext/value	/jointset/torso_neckhead/neck_ext/speed	/jointset/torso_neckhead/neck_latbend/value	/jointset/torso_neckhead/neck_latbend/speed	/jointset/torso_neckhead/neck_rot/value	/jointset/torso_neckhead/neck_rot/speed	/jointset/acromial_r/arm_add_r/value	/jointset/acromial_r/arm_add_r/speed	/jointset/acromial_r/arm_flex_r/value	/jointset/acromial_r/arm_flex_r/speed	/jointset/acromial_r/arm_rot_r/value	/jointset/acromial_r/arm_rot_r/speed	/jointset/elbow_r/elbow_flex_r/value	/jointset/elbow_r/elbow_flex_r/speed	/jointset/radioulnar_r/pro_sup_r/value	/jointset/radioulnar_r/pro_sup_r/speed	/jointset/radius_hand_r/wrist_flex_r/value	/jointset/radius_hand_r/wrist_flex_r/speed	/jointset/acromial_l/arm_add_l/value	/jointset/acromial_l/arm_add_l/speed	/jointset/acromial_l/arm_flex_l/value	/jointset/acromial_l/arm_flex_l/speed	/jointset/acromial_l/arm_rot_l/value	/jointset/acromial_l/arm_rot_l/speed	/jointset/elbow_l/elbow_flex_l/value	/jointset/elbow_l/elbow_flex_l/speed	/jointset/radioulnar_l/pro_sup_l/value	/jointset/radioulnar_l/pro_sup_l/speed	/jointset/radius_hand_l/wrist_flex_l/value	/jointset/radius_hand_l/wrist_flex_l/speed	/forceset/addbrev_r/activation	/forceset/addbrev_r/fiber_length	/forceset/addlong_r/activation	/forceset/addlong_r/fiber_length	/forceset/addmagProx_r/activation	/forceset/addmagProx_r/fiber_length	/forceset/addmagMid_r/activation	/forceset/addmagMid_r/fiber_length	/forceset/addmagDist_r/activation	/forceset/addmagDist_r/fiber_length	/forceset/addmagIsch_r/activation	/forceset/addmagIsch_r/fiber_length	/forceset/bflh_r/activation	/forceset/bflh_r/fiber_length	/forceset/bfsh_r/activation	/forceset/bfsh_r/fiber_length	/forceset/edl_r/activation	/forceset/edl_r/fiber_length	/forceset/ehl_r/activation	/forceset/ehl_r/fiber_length	/forceset/fdl_r/activation	/forceset/fdl_r/fiber_length	/forceset/fhl_r/activation	/forceset/fhl_r/fiber_length	/forceset/gaslat_r/activation	/forceset/gaslat_r/fiber_length	/forceset/gasmed_r/activation	/forceset/gasmed_r/fiber_length	/forceset/gem_r/activation	/forceset/gem_r/fiber_length	/forceset/glmax1_r/activation	/forceset/glmax1_r/fiber_length	/forceset/glmax2_r/activation	/forceset/glmax2_r/fiber_length	/forceset/glmax3_r/activation	/forceset/glmax3_r/fiber_length	/forceset/glmed1_r/activation	/forceset/glmed1_r/fiber_length	/forceset/glmed2_r/activation	/forceset/glmed2_r/fiber_length	/forceset/glmed3_r/activation	/forceset/glmed3_r/fiber_length	/forceset/glmin1_r/activation	/forceset/glmin1_r/fiber_length	/forceset/glmin2_r/activation	/forceset/glmin2_r/fiber_length	/forceset/glmin3_r/activation	/forceset/glmin3_r/fiber_length	/forceset/grac_r/activation	/forceset/grac_r/fiber_length	/forceset/iliacus_r/activation	/forceset/iliacus_r/fiber_length	/forceset/pect_r/activation	/forceset/pect_r/fiber_length	/forceset/perbrev_r/activation	/forceset/perbrev_r/fiber_length	/forceset/perlong_r/activation	/forceset/perlong_r/fiber_length	/forceset/pertert_r/activation	/forceset/pertert_r/fiber_length	/forceset/piri_r/activation	/forceset/piri_r/fiber_length	/forceset/psoas_r/activation	/forceset/psoas_r/fiber_length	/forceset/quadfem_r/activation	/forceset/quadfem_r/fiber_length	/forceset/recfem_r/activation	/forceset/recfem_r/fiber_length	/forceset/sart_r/activation	/forceset/sart_r/fiber_length	/forceset/semimem_r/activation	/forceset/semimem_r/fiber_length	/forceset/semiten_r/activation	/forceset/semiten_r/fiber_length	/forceset/soleus_r/activation	/forceset/soleus_r/fiber_length	/forceset/tfl_r/activation	/forceset/tfl_r/fiber_length	/forceset/tibant_r/activation	/forceset/tibant_r/fiber_length	/forceset/tibpost_r/activation	/forceset/tibpost_r/fiber_length	/forceset/vasint_r/activation	/forceset/vasint_r/fiber_length	/forceset/vaslat_r/activation	/forceset/vaslat_r/fiber_length	/forceset/vasmed_r/activation	/forceset/vasmed_r/fiber_length
1.41	-0.07916767453444115	0.07704045480833457	-0.08649572962136104	0.1021560175262788	-0.02055470356689278	0.5869614406339999	0.2389862117790647	1.074731306133899	0.9240624920980024	0.1634646778243541	-0.2007873833067266	0.07824275577149153	0.3166790596873027	-1.96068325915818	0.1420416250906134	-0.02970634396830165	-0.1672600049651113	-0.3738746443495894	0.1654056751738689	-0.15105054352664	0.0340927643709995	0.09639825873812213	-0.1426315637510739	-0.2385368966049848	0.04872952855054229	0.009879882186314406	-0.002189996940329004	0.02199164685297687	0.005741534988270128	0.00424878444941611	0.2950358382297464	-0.916002216299495	0.06428237452817802	0.0442258462803435	-0.07554043118839282	-0.3376475212820637	0.007833627842011767	-0.01607045073379174	0.001036072353177316	0.003850897030260692	0.0004427211333605927	0.003698423020452636	0.07933397660014285	0.6310855170712334	-0.01397961732252662	0.1107905688346775	0	0	0.1201287868876264	3.941492962181919	0.1105524851117891	0.02887286739964803	0.1099493440280387	-1.312670502380064	0.001136855114871519	-9.938519914450444e-18	0.04434999999999904	-6.649773324577755e-16	-0.4187119999999905	-4.163336342344329e-15	1.07587150777686	4.58304905066852	-0.1452883851238713	-0.3458343461381302	-0.1037447667338966	-1.087064488654896	0	0	-0.03023362613517869	-0.2962992402144752	0.1217941160459872	-0.343261524335422	0.07218810121538161	0.1055500829198985	0.1859635182208986	0.003613967328027279	0	0	0	0	-0.1048754720817842	0.2799215780244158	-0.1954003596715659	0.7037540626255157	-0.5058361495547078	0.1953536577687055	0.6050208899704708	0.4062561718103085	0.7685617801372844	0.03056146977377334	0	0	-0.04785153430075985	-0.08531564493793631	0.1461487214576917	-0.7590981161362665	-0.2491205097939129	-0.1683595363421548	0.7836878605979584	-0.6818382095055104	0.7866696281627029	-0.01354028568107678	0	0	0.07203872972971227	0.1	0.01	0.1	0.04769903139962844	0.1	0.2524339152144395	0.1	0.2957527577435769	0.1	0.4139965621740762	0.1	0.01	0.1	0.01	0.1	0.01	0.1	0.01	0.1	0.02321873584732285	0.1	0.03287713951645899	0.1	0.01	0.1	0.01	0.1	0.01	0.1	0.2179211680522736	0.1	0.2545534008767161	0.1	0.4019638678117748	0.1	0.1644341683659011	0.1	0.07436293028695831	0.1	0.01	0.1	0.02927931540483437	0.1	0.01	0.1	0.01	0.1	0.01	0.1	0.01	0.1	0.01	0.1	0.02052510791576556	0.1	0.02448619917632594	0.1	0.01	0.1	0.01	0.1	0.01	0.1	0.06862820446958839	0.1	0.3788290973317531	0.1	0.01	0.1712326517334566	0.01	0.1	0.01	0.1	0.1098363251038767	0.1	0.7899249705275947	0.1	0.01	0.1	0.03017610007764329	0.1	0.1206073920255005	0.1	0.01	0.1	0.01	0.1
1.42	-0.07855428974823409	0.04344694245121564	-0.08500190400689589	0.196670535234412	-0.01466986159941572	0.584191835814694	0.2496622386803938	1.061057061441795	0.9257097884262888	0.1657813121692649	-0.2000409748113693	0.07151895187461731	0.2971951729197266	-1.931762569817948	0.1412883768820489	-0.1198019994862484	-0.1707023884669166	-0.3127909091210441	0.1638067981740759	-0.1598876999792941	0.03463272799749292	0.05399636264934166	-0.1442545290667762	-0.1622965315702272	0.0488309551449404	0.01014265943981087	-0.002003566160992797	0.01864307793362061	0.005761196941132119	0.001966195286199049	0.2855378563274705	-0.9791702905475237	0.06370684593430517	-0.0575528593872845	-0.07819215011395692	-0.2651718925564093	0.007622350397740538	-0.02112774442712283	0.001070719972313579	0.003464761913626291	0.0004519886389223925	0.0009267505561799804	0.08516389617594178	0.541104136931287	-0.01289730017082831	0.1051575372916513	0	0	0.1592950285393387	3.887456828991761	0.1098175688027096	-0.1736391294457232	0.09689595639792603	-1.287891495415854	0.001136855114871519	-1.807003620809173e-18	0.04434999999999903	-1.243218491116711e-15	-0.4187119999999906	0	1.118531927409881	3.940823267625617	-0.1464456736369469	0.1030431628399306	-0.1144298425337885	-1.056501600863075	0	0	-0.03307376925400446	-0.2682521358223789	0.1178927061699936	-0.4362736906755392	0.0732882800274224	0.1154501021404232	0.1859955444140446	0.002839733246675841	0	0	0	0	-0.1020577403205585	0.2824710604180925	-0.1879881699215455	0.7793022260259852	-0.5038429217768097	0.2039848867996047	0.6091645752851745	0.4237295352101323	0.7688729793748126	0.03182217648347628	0	0	-0.04889069768548944	-0.1237384740829957	0.1384392954119947	-0.7856317772754933	-0.2506172809737781	-0.1334253847249801	0.7764965704615217	-0.7591801398660097	0.786514554376713	-0.01741718350288707	0	0	0.08925246991989774	0.1	0.02726128647636608	0.1	0.05684758622321739	0.1	0.2650495410095765	0.1	0.3042385605520387	0.1	0.4237162615837176	0.1	0.01	0.1	0.01	0.1	0.01	0.1	0.01	0.1	0.02434148337695397	0.1	0.03454788086723115	0.1	0.01	0.1	0.01	0.1	0.01	0.1	0.215102921141012	0.1	0.2541676574034378	0.1	0.4111715482482632	0.1	0.1633900337251037	0.1	0.05734749152019328	0.1	0.01	0.1	0.02365924418846486	0.1	0.01	0.1	0.01	0.1	0.01	0.1	0.01	0.1	0.01	0.1	0.02160677339517223	0.1	0.02579066705758496	0.1	0.01	0.1	0.01	0.1	0.01	0.1	0.04518114708072914	0.1	0.3615571705580004	0.1	0.01	0.1712326517334566	0.01	0.1	0.01	0.1	0.1156480232313503	0.1	0.8193087523783105	0.1	0.01	0.1	0.0316832079440691	0.1	0.1188105612283131	0.1	0.01	0.1	0.01	0.1
1.43	-0.07833636928750484	-0.0013930458651574	-0.08256644029934974	0.2899346847879334	-0.008985511311843809	0.5471046496273408	0.2602184203740023	1.05069987091695	0.9273729770538512	0.1665580373241177	-0.1993470775617515	0.0677638256529642	0.2781210957744274	-1.879655635432609	0.1396709250155692	-0.2022956805999381	-0.1734908429395571	-0.2442131114999697	0.1622009074275238	-0.1605890746552095	0.03489118474824265	0.02584567507497371	-0.1451587436728981	-0.09042146061218884	0.04892759861509009	0.009664347014969729	-0.001817364533743896	0.01862016272489015	0.005764138150409523	0.0002941209277403792	0.2755380846935553	-1.016642682367751	0.0633002761845089	-0.04065697497962758	-0.08022596013811656	-0.2033810024159642	0.007378500917669252	-0.02438494800712863	0.001103228316107468	0.00325083437938897	0.0004671440760273935	0.001515543710500098	0.09028120248773971	0.4886657014826737	-0.01187701168894285	0.09934342997147252	0	0	0.1977959085257794	3.808787670690621	0.1071406680620729	-0.3578967293224041	0.08438692663262734	-1.204595496223775	0.001136855114871519	-8.131516293641277e-18	0.04434999999999902	-3.758567531283079e-16	-0.4187119999999905	4.625929269271481e-15	1.154558911153329	3.259848165314106	-0.1434739034829943	0.4782439387509302	-0.124994946201613	-1.06164543576101	0	0	-0.03553851784439177	-0.2222196456327461	0.1130851001030892	-0.5243409930224874	0.07452700951107163	0.1343736218917148	0.1860212854391993	0.002356468542356418	0	0	0	0	-0.09925106989569604	0.2775158857843018	-0.1798087378635989	0.8564667472868516	-0.5017381986876888	0.2180951215290541	0.6135164742849675	0.4474326022882295	0.7692006908730814	0.0338164273704593	0	0	-0.05034682765999281	-0.1682646363922983	0.1303883675718766	-0.826430102822554	-0.2518423469485175	-0.1144532086060403	0.7684594043182313	-0.849857837395615	0.7863227447257359	-0.02085499273264215	0	0	0.09996021402422961	0.1	0.04326281365526875	0.1	0.06261445431331006	0.1	0.265675851638241	0.1	0.300081747369275	0.1	0.415915210529865	0.1	0.01	0.1	0.01	0.1	0.01	0.1	0.01	0.1	0.02594647606142236	0.1	0.03689650474706811	0.1	0.01	0.1	0.01	0.1	0.01	0.1	0.205310577045103	0.1	0.2451571960393388	0.1	0.4047474544934673	0.1	0.1540380346870831	0.1	0.0403782044204317	0.1	0.01	0.1	0.01511205473948127	0.1	0.01	0.1	0.01	0.1	0.01	0.1	0.01	0.1	0.01	0.1	0.02310990716772503	0.1	0.02759655983552205	0.1	0.01	0.1	0.01	0.1	0.01	0.1	0.02696549393407244	0.1	0.3325576196994279	0.1	0.01	0.1712326517334566	0.01	0.1	0.01	0.1	0.1237071963755435	0.1	0.801691284315194	0.1	0.01	0.1	0.03381558887754691	0.1	0.1125022849836165	0.1	0.01	0.1	0.01	0.1
1.44	-0.07860471843207917	-0.05298110989654801	-0.07921885183256183	0.3785032344606388	-0.003833896723263328	0.4782463661628316	0.2706859208309507	1.043246486652531	0.9290342506568805	0.1653288494765462	-0.1986757750295354	0.06697645975475627	0.2596590977207648	-1.810437448140162	0.1372725433647922	-0.2757653332910015	-0.1755835631705943	-0.1747090559823989	0.1608144194918201	-0.1386487935703755	0.03495064762704191	0.005946287879925178	-0.14556190782107	-0.04031641481719025	0.04902278828513519	0.009518967004509818	-0.001583276983225696	0.02340875505181994	0.005757191642351434	-0.0006946508058088511	0.2652844858872071	-1.030270112060495	0.06247002777038853	-0.0830248414120368	-0.08157206717733037	-0.1346107039213811	0.007141598520433624	-0.02369023972356276	0.001136056437636213	0.003282812152874466	0.0004739431377743698	0.0006799061746976273	0.095054902099358	0.4715348341628834	-0.01089275009221082	0.0988140612609863	0	0	0.2353948121834603	3.707308642834983	0.1027508899473827	-0.5148442841212055	0.07297834570610764	-1.069104971793815	0.001136855114871519	8.131516293641277e-18	0.04434999999999902	3.469446951953611e-16	-0.4187119999999905	0	1.183667337929597	2.560333702770352	-0.1371504591791821	0.7727524054093251	-0.1357385630913177	-1.089286201577632	0	0	-0.03748049285305868	-0.1649094292520717	0.1074259435657093	-0.606381498314375	0.07602976796281649	0.1694965150578111	0.1860436007609335	0.002150789700957933	0	0	0	0	-0.09653622420667814	0.263924188808607	-0.1708704382373814	0.9301233839986521	-0.4994536236798516	0.2404380331992637	0.618121909741544	0.4737056209630742	0.769550532019829	0.03617425668655477	0	0	-0.05226514954148593	-0.2155025748350894	0.1218843880091493	-0.8751049734747818	-0.2529667770382905	-0.113592326842194	0.7594830103664769	-0.9453920897929856	0.7860996098884525	-0.02364574773412682	0	0	0.1109134212828706	0.1	0.06052931109206181	0.1	0.06817575271681292	0.1	0.2648717772918904	0.1	0.2939202852965432	0.1	0.4053035444768233	0.1	0.01	0.1	0.01	0.1	0.01	0.1	0.01	0.1	0.02773767354084053	0.1	0.03950893536627994	0.1	0.01	0.1	0.01	0.1	0.01	0.1	0.1927849632276511	0.1	0.2331861006167029	0.1	0.3942492265933178	0.1	0.1443448483544134	0.1	0.0214096970472425	0.1	0.01	0.1	0.01	0.1	0.01	0.1	0.01	0.1	0.01	0.1	0.01	0.1	0.01	0.1	0.02477789659844132	0.1	0.02959900007287811	0.1	0.01	0.1	0.01	0.1	0.01	0.1	0.01	0.1	0.3000670137957026	0.1	0.01	0.1712326517334566	0.01	0.1	0.01	0.1	0.1326457512164835	0.1	0.7761952337307083	0.1	0.01	0.1	0.03619087264142266	0.1	0.1076887745783554	0.1	0.01	0.1	0.01	0.1
